<?xml version="1.0" encoding="utf-8"?>
<!-- Generator: Adobe Illustrator 16.0.0, SVG Export Plug-In . SVG Version: 6.00 Build 0)  -->
<!DOCTYPE svg PUBLIC "-//W3C//DTD SVG 1.1//EN" "http://www.w3.org/Graphics/SVG/1.1/DTD/svg11.dtd" [
	<!ENTITY ns_flows "http://ns.adobe.com/Flows/1.0/">
	<!ENTITY ns_extend "http://ns.adobe.com/Extensibility/1.0/">
	<!ENTITY ns_ai "http://ns.adobe.com/AdobeIllustrator/10.0/">
	<!ENTITY ns_graphs "http://ns.adobe.com/Graphs/1.0/">
]>
<svg version="1.1" id="Layer_1" xmlns:x="&ns_extend;" xmlns:i="&ns_ai;" xmlns:graph="&ns_graphs;"
	 xmlns="http://www.w3.org/2000/svg" xmlns:xlink="http://www.w3.org/1999/xlink" xmlns:a="http://ns.adobe.com/AdobeSVGViewerExtensions/3.0/"
	 x="0px" y="0px" width="297.595px" height="297.428px" viewBox="0 0 297.595 297.428" enable-background="new 0 0 297.595 297.428"
	 xml:space="preserve">
<path fill-rule="evenodd" clip-rule="evenodd" fill="#E6E6E6" d="M148.837,297.417C68.079,298.397,0.093,231.433,0,148.835
	C-0.092,67.162,67.362-0.194,149.287,0c81.426,0.193,148.554,67.847,148.308,149.286
	C297.351,229.782,230.974,298.288,148.837,297.417z"/>
<path fill-rule="evenodd" clip-rule="evenodd" d="M291.417,148.967c-0.092,78.918-64.072,142.508-143.231,142.354
	C69.667,291.169,6.038,227.038,6.178,148.193C6.318,69.611,70.399,5.953,149.209,6.107
	C227.931,6.261,291.507,70.128,291.417,148.967z"/>
<path fill="#E6E6E6" d="M74.898,70.462c1.84,0.462,4.445,0.622,6.957,0.015c3.151-0.762,5.232-2.824,4.65-4.852
	c-0.542-1.882-2.936-2.386-6.694-2.699c-4.852-0.405-8.308-1.897-9.337-5.476c-1.167-4.056,1.612-8.04,7.434-9.446
	c2.911-0.703,5.235-0.633,6.822-0.307l-0.147,3.94c-1.094-0.249-3.17-0.497-5.684,0.11c-3.109,0.752-4.557,2.689-4.143,4.127
	c0.552,1.918,2.898,2.365,6.859,2.789c5.132,0.495,8.032,2.123,9.062,5.701c1.144,3.98-1.127,8.236-8.068,9.912
	c-2.831,0.685-5.996,0.66-7.704,0.206L74.898,70.462z"/>
<path fill="#E6E6E6" d="M125.822,54.668c-0.589-3.265-1.308-7.207-1.719-10.647l-0.119,0.015c-0.466,3.203-1.125,6.776-1.895,10.133
	l-2.441,11.504l-3.768,0.463l-4.995-10.439c-1.458-3.121-2.864-6.479-3.994-9.563l-0.079,0.011
	c0.317,3.337,0.687,7.396,0.944,10.896l0.748,10.307l-4.561,0.56l-1.552-25.673l6.424-0.787l4.832,9.806
	c1.343,2.866,2.572,5.785,3.617,8.535l0.119-0.015c0.353-2.844,0.853-6.09,1.494-9.2l2.352-10.649l6.346-0.778l4.884,25.265
	l-4.76,0.582L125.822,54.668z"/>
<path fill="#E6E6E6" d="M151.037,56.621l-2.727,7.309l-5.053-0.285l10.074-25.762l6.245,0.352l7.23,26.738l-5.251-0.297
	l-2.007-7.574L151.037,56.621z M158.918,53.434l-1.743-6.584c-0.428-1.625-0.764-3.441-1.076-4.982l-0.079-0.004
	c-0.483,1.496-0.985,3.304-1.55,4.834l-2.434,6.348L158.918,53.434z"/>
<path fill="#E6E6E6" d="M214.111,52.068l-7.014-2.383l1.25-3.684l18.593,6.321l-1.251,3.684l-7.086-2.41l-6.934,20.416l-4.493-1.528
	L214.111,52.068z"/>
<g id="fill">
	<path fill-rule="evenodd" clip-rule="evenodd" fill="#E6E6E6" d="M181.948,144.313L49.929,203.522l81.844-47.844l-16.394-8.611
		l131.346-62.451c-2.814,1.648-85.546,50.885-85.546,50.885L181.948,144.313z"/>
	<path fill="#E6E6E6" d="M193.275,45.358l4.231,0.966l2.106-1.995l-15.683-3.58l-2.104,1.995l3.179,0.727
		c3.077,0.702,4.868,1.839,5.26,3.673l-7.406-1.689l-2.105,1.995l9.329,2.13c-0.797,2.419-3.434,3.547-7.255,2.674l-2.099-0.478
		l-0.508,2.228l6.797,12.945l4.191,0.957c-2.289-4.385-4.838-9.086-7.121-13.507c4.135,0.666,8.143-0.633,9.438-4.035l2.909,0.665
		l2.104-1.995l-4.575-1.045C193.965,47.003,193.724,46.128,193.275,45.358"/>
</g>
<g>
	<path fill="#E6E6E6" d="M82.471,219.352l4.251,1.727l-6.698,15.527c-2.85,6.611-6.911,7.552-11.542,5.671
		c-1.175-0.477-2.569-1.294-3.314-2.014l2.036-3.308c0.599,0.494,1.44,1.086,2.442,1.492c2.42,0.983,4.396,0.449,6.189-3.709
		L82.471,219.352z"/>
	<path fill="#E6E6E6" d="M116.324,242.158c-1.46,8.624-7.435,12.781-14.416,11.738c-7.13-1.064-10.698-7.271-9.419-14.828
		c1.336-7.899,7.158-12.742,14.289-11.679C114.172,228.493,117.564,234.831,116.324,242.158z M97.381,239.721
		c-0.884,5.229,1.001,9.776,5.43,10.436c4.466,0.669,7.692-3.156,8.603-8.537c0.82-4.846-0.77-9.778-5.386-10.469
		C101.448,230.468,98.279,234.417,97.381,239.721z"/>
	<path fill="#E6E6E6" d="M134.042,233.005l-0.758,15.221c-0.254,5.113,1.64,7.576,4.676,7.729c3.255,0.162,5.312-2.104,5.566-7.215
		l0.757-15.221l4.5,0.225l-0.742,14.91c-0.401,8.057-4.492,11.424-10.418,11.127c-5.706-0.285-9.233-3.84-8.824-12.051l0.744-14.949
		L134.042,233.005z"/>
	<path fill="#E6E6E6" d="M161.253,233.698l4.628-0.292l1.587,21.806l10.424-0.66l0.287,3.936l-15.054,0.952L161.253,233.698z"/>
	<path fill="#E6E6E6" d="M202.664,240.165l-8.682,2.004l1.651,7.164l9.706-2.24l0.844,3.654l-13.91,3.211l-5.624-24.388
		l13.397-3.093l0.844,3.655l-9.195,2.121l1.453,6.296l8.68-2.004L202.664,240.165z"/>
	<path fill="#E6E6E6" d="M218.767,241.054c1.687,0.275,4.008,0.177,6.143-0.668c2.676-1.062,3.633-2.958,2.84-4.9
		c-0.735-1.802-2.32-2.404-5.68-2.345c-4.338,0.077-7.594-1.055-8.993-4.479c-1.586-3.885,0.319-8.086,5.265-10.045
		c2.474-0.98,4.533-1.141,5.979-0.974l0.412,3.898c-1.001-0.137-2.867-0.177-5.002,0.669c-2.642,1.046-3.188,2.985-2.625,4.363
		c0.75,1.837,2.416,2.161,5.971,2.188c4.598-0.016,7.38,1.303,8.779,4.728c1.557,3.815,0.135,8.235-5.76,10.57
		c-2.405,0.952-5.201,1.238-6.771,0.958L218.767,241.054z"/>
</g>
</svg>
